<svg width="198" height="198" viewBox="0 0 198 198" fill="none" xmlns="http://www.w3.org/2000/svg">
<circle cx="99" cy="99" r="48" fill="#C6F432"/>
<circle opacity="0.5" cx="99" cy="99" r="58.5" stroke="#C6F432"/>
<circle opacity="0.25" cx="99" cy="99" r="76.5" stroke="#C6F432"/>
<circle opacity="0.1" cx="99" cy="99" r="98.5" stroke="#C6F432"/>
<path d="M99 84.75C96.3766 84.75 94.25 86.8766 94.25 89.5V97.4167C94.25 100.04 96.3766 102.167 99 102.167C101.623 102.167 103.75 100.04 103.75 97.4167V89.5C103.75 86.8766 101.623 84.75 99 84.75ZM100.583 111.58V114.042C100.583 114.916 99.8745 115.625 99 115.625C98.1255 115.625 97.4167 114.916 97.4167 114.042V111.58C90.2917 110.792 84.75 104.752 84.75 97.4167C84.75 96.5422 85.4589 95.8333 86.3333 95.8333C87.2078 95.8333 87.9167 96.5422 87.9167 97.4167C87.9167 103.538 92.8788 108.5 99 108.5C105.121 108.5 110.083 103.538 110.083 97.4167C110.083 96.5422 110.792 95.8333 111.667 95.8333C112.541 95.8333 113.25 96.5422 113.25 97.4167C113.25 104.752 107.708 110.792 100.583 111.58ZM99 81.5833C103.372 81.5833 106.917 85.1277 106.917 89.5V97.4167C106.917 101.789 103.372 105.333 99 105.333C94.6277 105.333 91.0833 101.789 91.0833 97.4167V89.5C91.0833 85.1277 94.6277 81.5833 99 81.5833Z" fill="#010101"/>
</svg>
