<svg width="580" height="323" viewBox="0 0 580 323" fill="none" xmlns="http://www.w3.org/2000/svg">
<g opacity="0.1">
<path d="M29.2618 306.919C16.1382 306.529 7.58204 303.309 3.67182 297.261C-1.34594 289.504 1.32965 277.19 11.6241 260.66C22.782 242.746 43.2295 219.254 72.4034 190.849C111.025 153.234 148.783 121.352 184.613 96.0822C215.74 74.1331 246.404 56.49 275.758 43.6508C327.151 21.1579 367.597 16.0128 403.657 13.7965C442.304 11.4206 475.595 16.9736 502.592 30.2986C526.065 41.8855 544.389 59.0433 557.056 81.3055C583.442 127.695 578.625 185.831 558.723 215.241C549.39 229.034 537.238 235.658 524.52 233.875C470.673 226.336 422.792 223.301 378.135 224.595C316.604 226.377 261.957 236.63 215.704 255.057C182.642 268.23 134.242 286.256 91.4192 297.312C64.9096 304.16 44.1428 307.362 29.2547 306.919L29.2618 306.919ZM403.718 14.8657L403.787 15.9352C367.927 18.136 327.697 23.2588 276.615 45.6106C247.398 58.3965 216.859 75.9645 185.848 97.8311C150.106 123.032 112.443 154.845 73.8954 192.377C44.8465 220.663 24.503 244.022 13.4353 261.789C3.62151 277.544 0.940325 289.085 5.46585 296.082C13.1496 307.966 42.6893 307.669 90.8878 295.226C133.596 284.195 181.909 266.202 214.913 253.056C261.397 234.536 316.296 224.233 378.071 222.444C422.842 221.146 470.844 224.192 524.812 231.749C536.682 233.413 548.088 227.118 556.943 214.042C576.478 185.179 581.158 128.036 555.187 82.3747C542.738 60.4914 524.72 43.6221 501.641 32.2261C474.982 19.0687 442.061 13.584 403.786 15.9423L403.718 14.8729L403.718 14.8657Z" fill="white"/>
<path d="M48.5117 290.764C36.4311 290.405 28.5681 287.441 25.0084 281.869C15.4149 266.877 36.252 234.85 88.711 183.955C157.5 118.903 223.047 73.4548 283.533 48.868C332.627 28.9144 370.143 25.373 403.374 24.5268C437.713 22.7249 467.258 27.794 491.175 39.6019C512.077 49.9159 528.343 65.1069 539.528 84.7677C547.233 98.3144 556.254 120.776 555.454 150.82C554.884 172.165 549.136 192.576 539.675 206.816C530.131 221.183 517.652 228.22 504.529 226.619C406.429 215.937 303.445 210.806 215.022 245.293C184.978 257.009 141.258 272.974 103.55 282.499C80.1792 288.402 61.7924 291.158 48.5117 290.764ZM423.471 26.2919C416.999 26.0995 410.325 26.1805 403.45 26.5421C370.383 27.386 333.075 30.905 284.285 50.7387C224.031 75.232 158.696 120.543 90.0974 185.422C63.2607 211.453 44.4457 232.945 34.1854 249.289C25.1033 263.762 22.5788 274.361 26.6924 280.781C33.6552 291.662 59.3488 291.58 103.044 280.543C140.651 271.044 184.291 255.104 214.277 243.416C303.106 208.768 406.375 213.901 504.746 224.612C517.093 226.118 528.883 219.398 537.985 205.699C547.237 191.768 552.866 171.74 553.425 150.766C553.861 134.438 551.501 109.911 537.767 85.7684C526.786 66.4648 510.813 51.5404 490.278 41.4092C471.441 32.1164 449.032 27.0517 423.464 26.2917L423.471 26.2919Z" fill="white"/>
<path d="M67.7464 274.636C56.6946 274.308 49.5317 271.602 46.3154 266.506C37.6628 252.816 56.8658 223.564 105.018 177.076C170.597 117.071 233.27 75.6929 291.308 54.0851C338.529 36.5044 374.32 34.7027 403.098 35.2572C433.159 34.0159 459.021 38.6174 479.908 48.9382C498.258 58.0087 512.478 71.2834 522.187 88.4001C531.931 105.568 536.648 125.839 535.832 147.027C535.093 166.362 529.791 184.529 520.905 198.178C511.097 213.238 498.182 220.756 484.531 219.355L476.962 218.757C436.301 215.55 390.21 211.916 345.13 213.048C293.537 214.351 250.752 221.704 214.325 235.53C175.02 250.444 141.821 261.271 115.66 267.693C95.4267 272.665 79.4199 274.976 67.7537 274.629L67.7464 274.636ZM418.79 37.0418C413.703 36.8906 408.482 36.9289 403.12 37.1492C374.457 36.598 338.888 38.392 291.963 55.8598C234.156 77.3884 171.687 118.637 106.307 178.461C59.5755 223.573 39.921 252.862 47.9112 265.5C54.0436 275.21 76.6851 275.332 115.206 265.867C141.303 259.457 174.422 248.657 213.655 233.769C250.278 219.864 293.271 212.473 345.078 211.162C390.259 210.026 436.4 213.661 477.111 216.877L484.701 217.476C497.647 218.799 509.924 211.584 519.327 197.149C527.905 183.979 533.233 165.683 533.954 146.964C534.752 126.126 530.117 106.195 520.551 89.34C511.032 72.5586 497.075 59.5424 479.071 50.6398C462.18 42.2861 441.958 37.7305 418.79 37.0418Z" fill="white"/>
<path d="M86.9205 258.622C76.9189 258.324 70.5076 255.834 67.6073 251.17C59.903 238.777 77.4721 212.291 121.332 170.203C183.745 115.198 243.544 77.8967 299.089 59.3169C344.928 43.9804 378.58 44.1353 402.786 45.9939C464.808 44.3056 492.654 70.2071 505.084 92.2402C513.48 107.118 517.409 124.78 516.451 143.306C515.576 160.251 510.621 176.588 502.506 189.299C492.517 204.949 478.655 213.27 464.54 212.105C454.172 211.604 443.5 211.007 433.185 210.428C357.389 206.198 279.015 201.827 213.642 225.788C151.848 248.423 109.917 259.313 86.9346 258.629L86.9205 258.622ZM388.978 46.9947C366.388 46.3233 337.116 48.4405 299.633 60.9808C244.311 79.4884 184.716 116.674 122.509 171.499C79.9738 212.323 61.9895 238.825 69.0865 250.24C74.3958 258.772 93.9922 259.104 127.34 251.212C149.649 245.929 177.677 237.077 213.019 224.129C278.732 200.049 357.298 204.433 433.266 208.668C443.581 209.247 454.246 209.836 464.635 210.346C478.337 211.462 491.24 203.657 501.012 188.345C508.961 175.887 513.821 159.855 514.681 143.21C515.622 125.013 511.768 107.684 503.536 93.0968C491.336 71.4789 463.955 46.0713 402.77 47.7485L402.677 47.7458C398.411 47.4184 393.842 47.1465 388.963 47.0014L388.978 46.9947Z" fill="white"/>
<path d="M106.202 242.596C97.6866 242.343 91.5547 240.312 88.8412 235.862C82.0853 224.757 98.0422 201.032 137.632 163.323C196.923 113.269 253.848 80.0441 306.849 64.5408C340.751 54.6235 372.038 52.0647 402.488 56.7237C454.829 56.245 478.022 77.9748 488.246 96.2959C495.273 108.877 498.416 123.878 497.353 139.672C496.379 154.157 491.841 168.522 484.574 180.126C474.418 196.352 460.243 205.329 445.548 204.893C445.205 204.882 444.862 204.872 444.52 204.848C426.733 204.498 409.05 203.8 391.951 203.135C326.245 200.558 264.188 198.126 212.917 216.031C174.197 229.544 130.492 243.325 106.188 242.603L106.202 242.596ZM378.651 56.1871C355.826 55.5086 332.289 58.7922 307.31 66.1019C254.525 81.5472 197.804 114.663 138.718 164.537C100.35 201.086 84.0215 224.808 90.2321 235.015C101.324 253.24 182.023 225.085 212.398 214.489C263.951 196.479 326.165 198.923 392.028 201.504C409.119 202.176 426.789 202.866 444.597 203.217C459.079 204.084 473.139 195.346 483.206 179.255C490.33 167.875 494.782 153.78 495.741 139.559C496.787 124.081 493.706 109.396 486.835 97.0922C476.822 79.1498 454.051 57.8624 402.44 58.3556L402.311 58.3518C394.489 57.145 386.609 56.4236 378.651 56.1871Z" fill="white"/>
<path d="M125.262 226.593C117.703 226.368 112.366 224.547 110.031 220.595C104.224 210.773 118.59 189.787 153.946 156.436C210.174 111.292 264.225 82.1364 314.631 69.7582C355.587 59.6996 384.857 62.9409 402.22 67.4473C445.052 68.1187 463.709 85.8381 471.794 100.6C482.835 120.758 481.082 148.244 467.317 170.623C456.64 187.993 440.732 198.051 424.737 197.576C424.665 197.574 424.601 197.572 424.529 197.57C399.153 197.79 375.556 197.117 352.737 196.474C298.176 194.931 251.059 193.602 212.235 206.253C177.679 217.498 144.379 227.154 125.255 226.585L125.262 226.593ZM371.067 64.7662C328.003 63.4861 254.25 77.821 154.921 157.569C120.683 189.87 105.995 210.832 111.312 219.838C120.081 234.677 182.015 214.525 211.777 204.836C250.853 192.099 298.084 193.439 352.781 194.986C375.586 195.628 399.169 196.3 424.552 196.08C424.616 196.082 424.681 196.084 424.745 196.086C440.233 196.546 455.647 186.753 466.046 169.84C479.526 147.911 481.269 121.019 470.478 101.32C462.577 86.9005 444.301 69.565 402.104 68.9483L402.011 68.9455L401.926 68.9215C394.639 67.0214 384.298 65.1594 371.067 64.7662Z" fill="white"/>
<path d="M144.512 210.659C137.939 210.464 133.094 208.937 131.103 205.425C126.26 196.863 139.066 178.589 170.253 149.557C223.484 109.259 274.653 84.1873 322.405 74.9898C340.067 71.589 356.796 70.4887 372.118 71.725C387.533 72.9641 397.388 76.2873 401.95 78.1924C422.284 79.2195 437.784 84.8096 448.019 94.8209C456.857 103.465 461.323 115.125 460.924 128.531C460.486 143.29 454.237 158.664 443.761 170.725C432.67 183.484 418.742 190.441 404.531 190.313C370.845 191.532 341.314 190.826 315.262 190.202C272.827 189.185 239.308 188.382 211.538 196.504L209.829 197.005C189.33 202.986 161.293 211.158 144.519 210.659L144.512 210.659ZM364.361 72.6693C352.937 72.3297 339.033 73.1844 322.658 76.337C275.115 85.4977 224.134 110.489 171.13 150.607C140.957 178.703 127.874 196.933 132.296 204.751C138.825 216.286 183.032 203.394 209.446 195.69L211.155 195.189C239.127 187.015 272.739 187.814 315.296 188.835C341.333 189.459 370.843 190.164 404.514 188.944C418.347 189.069 431.905 182.279 442.729 169.82C453.005 157.997 459.138 142.935 459.56 128.49C459.947 115.471 455.621 104.167 447.06 95.7954C437.055 86.0058 421.809 80.5379 401.76 79.5479L401.638 79.5443L401.525 79.4979C397.034 77.6093 384.6 73.2709 364.354 72.6691L364.361 72.6693Z" fill="white"/>
<path d="M163.68 195.081C157.929 194.91 153.672 193.58 152 190.414C148.12 183.085 159.424 167.467 186.567 142.684L186.626 142.636C221.164 118.274 274.107 87.667 330.179 80.2284C346.669 78.0392 362.563 78.0532 376.133 80.269C386.807 82.0119 396.116 85.1685 401.695 88.945C440.872 93.0252 444.156 116.527 443.747 126.451C443.226 139.159 436.377 153.305 425.425 164.298C413.662 176.113 399.142 182.774 384.532 183.063C341.041 185.811 307.007 184.792 279.667 183.972C250.134 183.087 228.824 182.446 210.834 186.754C209.401 187.099 207.91 187.456 206.383 187.826C191.821 191.34 174.904 195.415 163.68 195.081ZM187.369 143.625C161.093 167.624 149.562 183.171 153.089 189.838C157.578 198.317 186.775 191.276 206.09 186.621C207.617 186.25 209.108 185.894 210.541 185.549C228.689 181.203 250.078 181.839 279.697 182.726C307.023 183.553 341.014 184.563 384.477 181.815C398.585 181.539 413.178 174.831 424.544 163.412C435.275 152.635 441.993 138.793 442.505 126.386C443.343 106.123 428.362 92.9112 401.409 90.1472L401.252 90.1282L401.126 90.0385C390.181 82.5349 364.04 76.9652 330.336 81.4366C299.533 85.5214 249.719 99.6294 187.369 143.611L187.369 143.625Z" fill="white"/>
<path d="M183.014 179.946C177.806 179.791 173.85 178.67 172.485 175.743C171.08 172.735 172.592 168.288 177.108 162.147C182.019 155.466 190.684 146.604 202.875 135.797L202.94 135.749C261.965 97.5433 308.939 87.3126 337.946 85.4597C371.502 83.3121 394.324 91.312 401.454 99.7051C425.652 104.479 428.356 118.135 427.812 125.863C426.316 147.096 397.755 174.1 364.527 175.799C308.433 180.83 272.859 178.733 246.877 177.209C231.088 176.281 219.674 175.605 210.109 177.004C208.543 177.23 206.898 177.482 205.217 177.733C197.575 178.896 189.365 180.142 183.014 179.953L183.014 179.946ZM203.578 136.656C181.003 156.682 170.878 169.67 173.486 175.271C176.168 181.017 192.179 178.585 205.05 176.632C206.731 176.374 208.376 176.129 209.948 175.903C219.622 174.493 231.078 175.17 246.938 176.1C272.884 177.624 308.416 179.719 364.446 174.693C379.212 173.943 394.729 167.677 407.043 157.505C418.633 147.935 425.978 136.075 426.706 125.787C427.607 113.034 418.49 104.145 401.051 100.753L400.859 100.719L400.735 100.565C395.054 93.6907 373.661 84.2861 338.021 86.5651C309.15 88.4149 262.391 98.6019 203.578 136.656Z" fill="white"/>
<path d="M262.354 172.969C241.915 172.362 228.93 170.206 219.915 168.706C215.632 167.999 212.252 167.433 209.327 167.231C208.563 167.172 207.792 167.121 207.022 167.069C200.221 166.616 193.192 166.15 191.835 161.99C190.728 158.597 192.355 151.475 219.189 128.911L219.255 128.862C252.921 109.303 286.054 97.0916 317.736 92.5601C350.997 87.8034 372.407 93.0605 382.204 96.6113C392.285 100.271 399.185 105.319 401.205 110.494C412.985 115.178 414.6 122.189 413.863 127.261C412.667 135.514 404.148 145.226 391.068 153.233C377.412 161.596 360.444 167.167 344.508 168.527C308.274 172.715 281.9 173.55 262.354 172.969ZM209.391 166.259C212.359 166.469 215.768 167.028 220.073 167.744C237.668 170.667 270.413 176.103 344.408 167.557C379.548 164.554 410.607 142.982 412.902 127.118C413.884 120.313 409.648 114.85 400.651 111.323L400.446 111.245L400.374 111.035C398.562 106.06 391.816 101.138 381.877 97.5328C370.905 93.5531 311.538 76.3932 219.781 129.688C200.002 146.322 191.16 156.79 192.759 161.688C193.913 165.225 200.607 165.668 207.086 166.097C207.864 166.149 208.635 166.2 209.398 166.259L209.391 166.259Z" fill="white"/>
<path d="M246.385 167.279C241.799 167.143 237.588 166.86 233.768 166.439C214.925 164.338 210.013 159.063 208.398 157.331C206.798 155.579 206.109 153.746 206.298 151.724C206.871 145.666 215.336 137.056 235.518 122.017L235.583 121.976C267.757 105.732 300.601 96.4852 330.569 95.2412C364.433 93.8263 382.938 102.708 389.322 106.594C396.669 111.061 400.789 116.306 400.932 121.368C403.732 124.567 404.498 127.907 403.225 131.3C400.212 139.335 386.529 145.734 375.593 149.678C361.267 154.848 343.119 158.965 324.503 161.263C291.983 165.841 265.788 167.856 246.385 167.279ZM209.009 156.755C219.902 168.434 258.72 169.673 324.385 160.428C358.445 156.225 397.37 144.487 402.432 131.012C403.605 127.895 402.846 124.799 400.196 121.826L400.092 121.708L400.097 121.551C400.025 116.734 396.05 111.687 388.879 107.326C362.148 91.072 302.898 88.9598 235.983 122.733C216.305 137.4 207.674 146.098 207.132 151.813C206.964 153.607 207.561 155.179 209.008 156.762L209.009 156.755Z" fill="white"/>
<path d="M230.13 161.595C218.207 161.241 210.901 159.254 208.063 155.631C206.34 153.438 206.222 150.676 207.705 147.195C210.235 141.246 219.399 134.125 226.645 129.204C234.921 123.575 244.832 118.039 251.883 115.103C289.879 99.2757 320.906 97.2751 340.236 98.3798C362.708 99.6638 382.504 106.019 393.202 115.371C399.383 120.777 401.979 126.786 400.528 132.295C396.87 146.141 372.658 147.872 344.626 149.876C331.463 150.817 317.856 151.788 304.476 154.005C270.976 159.55 246.304 162.076 230.13 161.595ZM252.016 115.437L252.156 115.77C239.175 121.18 212.682 137.328 208.369 147.487C207 150.706 207.09 153.223 208.633 155.196C215.054 163.389 247.271 162.749 304.368 153.3C317.784 151.076 331.406 150.106 344.583 149.165C372.342 147.182 396.311 145.466 399.84 132.117C401.225 126.885 398.7 121.137 392.735 115.916C382.156 106.661 362.515 100.374 340.201 99.0951C320.921 97.9919 290.029 99.9965 252.164 115.763L252.024 115.43L252.016 115.437Z" fill="white"/>
</g>
</svg>
